# Blender 4.2.0
# www.blender.org
mtllib type1_stone_4.mtl
o Sphere
v 0.162212 -0.555570 0.815493
v -0.653281 -0.707107 -0.270598
v -0.587938 -0.707107 -0.392847
v -0.500000 -0.707107 -0.500000
v 0.377498 -0.137568 -0.911362
v 0.697384 0.139610 -0.697384
v 0.725814 0.195090 -0.654169
v -0.335870 0.469135 0.810861
v -0.646493 -0.713136 -0.267786
v -0.581286 -0.713672 -0.388403
v -0.493723 -0.714392 -0.493723
v 0.816605 0.181515 -0.545638
v 0.807998 0.195090 -0.554028
v 0.749339 0.288813 -0.580904
v -0.996658 -0.033927 -0.000000
v -0.763596 0.292238 -0.561902
v 0.414883 0.852133 -0.003584
v 0.415568 0.845602 -0.140542
v -0.275333 0.924859 0.100016
v -0.284560 0.917428 -0.076649
v 0.166233 -0.517008 0.835709
v -0.350549 0.397371 0.846300
v -0.281322 0.434377 0.846729
v -0.381805 0.511515 0.760746
v -0.466022 0.657859 0.564622
v -0.996487 -0.033753 0.001904
v -0.360436 0.388774 0.846201
v -0.967973 -0.195090 -0.130083
v -0.718078 -0.621646 -0.297438
v -0.621552 -0.657846 -0.415308
v -0.537411 -0.642638 -0.537411
v -0.748188 0.231933 -0.609373
v -0.801315 0.241358 -0.540153
v -0.980520 -0.007161 -0.190616
v 0.979428 -0.195090 -0.013776
v 0.652497 0.487202 0.476921
v 0.990797 -0.078927 -0.014514
v 0.342909 0.307871 0.845264
v 0.377155 -0.146676 -0.910533
v 0.331248 -0.195090 -0.919499
v 0.702315 0.068801 -0.702315
v 0.824484 0.085306 -0.550902
v 0.979091 -0.195090 -0.017205
v 0.607327 0.025748 -0.785729
v 0.416005 -0.114123 -0.893385
v 0.894526 0.060377 -0.425045
v 0.977047 -0.062874 -0.170172
v 0.977802 -0.200896 -0.012408
v -0.431674 -0.707107 -0.556074
v 0.285139 -0.170282 -0.936027
v -0.418283 -0.715012 -0.554662
v -0.482972 -0.070275 -0.849295
v -0.510630 -0.619477 -0.583861
v 0.304448 -0.195090 -0.927629
v 0.102053 -0.719289 -0.643534
v 0.312663 -0.219783 -0.917347
v 0.160852 -0.564060 0.808660
v 0.165897 -0.555570 0.814375
v 0.087744 -0.707107 0.698465
v 0.086067 -0.719158 0.683946
v 0.241373 -0.475130 0.836194
v 0.280256 -0.441626 0.836582
v 0.845052 -0.481869 0.121722
v 0.608956 -0.723455 0.067196
v 0.083899 -0.555570 0.823206
v 0.042871 -0.718803 0.688633
v 0.078402 -0.533550 0.835517
v -0.488745 -0.091645 0.840636
v 0.052687 -0.707107 0.701917
v -0.989706 -0.104506 -0.000000
v -0.968796 -0.195090 -0.121724
v -0.681450 -0.707107 -0.177739
v -0.676198 -0.712892 -0.170882
v -0.987078 -0.090524 0.040668
v -0.774908 -0.576169 -0.238047
v -0.964718 -0.205805 -0.130127
v -0.715331 -0.311386 0.568722
v -0.525061 -0.714135 0.391070
vn 0.6314 0.0975 -0.7693
vn 0.5677 -0.6645 0.4859
vn 0.2248 -0.6326 0.7412
vn -0.3994 -0.5213 0.7541
vn -0.2563 0.4696 0.8448
vn -0.8391 -0.4955 0.2246
vn -0.6088 -0.7715 -0.1847
vn -0.5611 -0.7715 -0.2999
vn -0.4918 -0.7715 -0.4036
vn -0.1559 -0.4235 -0.8924
vn 0.4691 -0.0975 -0.8777
vn 0.0977 0.9941 -0.0469
vn 0.7400 0.2890 -0.6073
vn 0.8777 0.0975 -0.4691
vn 0.7693 0.0975 -0.6314
vn -0.7400 0.2890 -0.6073
vn -0.9904 -0.0975 0.0975
vn -0.7998 0.6000 0.0165
vn -0.4162 0.4696 0.7786
vn 0.1681 0.8233 0.5421
vn -0.5987 -0.6326 -0.4913
vn -0.7412 -0.6326 -0.2248
vn -0.6831 -0.6326 -0.3651
vn -0.9527 -0.2890 -0.0938
vn -0.9904 -0.0975 -0.0975
vn 0.2563 -0.4696 0.8448
vn 0.9904 -0.0975 -0.0975
vn 0.9527 -0.2890 -0.0939
vn 0.7806 -0.0724 0.6208
vn 0.8502 0.5261 -0.0208
vn 0.2779 -0.2890 -0.9161
vn 0.2889 -0.0975 -0.9524
vn -0.0085 0.6172 -0.7868
vn -0.4036 -0.7715 -0.4918
vn -0.4913 -0.6326 -0.5987
vn 0.6773 -0.5521 -0.4863
vn -0.0000 -0.0116 0.9999
vn 0.0624 -0.7715 0.6332
vn -0.0082 -1.0000 -0.0000
vn 0.0759 -0.6326 0.7708
vn 0.0865 -0.4696 0.8786
vn -0.7861 -0.2364 -0.5711
vn -0.8287 0.2154 0.5166
vt 0.645207 0.508249
vt 0.625000 0.544726
vt 0.625000 0.522041
vt 0.476091 0.337419
vt 0.300963 0.353294
vt 0.294265 0.341580
vt 0.281988 0.312500
vt 0.281250 0.308999
vt 0.269877 0.250000
vt 0.269924 0.243944
vt 0.491499 0.241784
vt 0.281250 0.312500
vt 0.106518 0.398521
vt 0.104925 0.246468
vt 0.259925 0.244122
vt 0.261935 0.250000
vt 0.266163 0.312500
vt 0.264739 0.320460
vt 0.166370 0.470967
vt 0.198617 0.643688
vt 0.187500 0.656253
vt 0.187500 0.630310
vt 0.980120 0.437500
vt 0.978672 0.433930
vt 0.952260 0.304004
vt 0.959376 0.250000
vt 0.960583 0.247092
vt 0.006638 0.470999
vt 0.000000 0.466520
vt 0.937500 0.250000
vt 0.937500 0.246970
vt 0.906250 0.250000
vt 0.906250 0.246700
vt 0.875000 0.250000
vt 0.875000 0.246339
vt 0.699539 0.437500
vt 0.697882 0.429273
vt 0.719829 0.243878
vt 0.852843 0.246027
vt 0.855073 0.250000
vt 0.864868 0.286142
vt 0.832470 0.477529
vt 0.702978 0.445448
vt 0.687500 0.453010
vt 0.687500 0.455928
vt 0.680679 0.463439
vt 0.398986 0.895140
vt 0.530511 0.840727
vt 0.556465 0.839460
vt 0.969843 0.896018
vt 0.616726 0.562500
vt 0.604642 0.593725
vt 0.595670 0.562500
vt 0.593750 0.527329
vt 0.593750 0.558151
vt 0.570715 0.519343
vt 0.891387 0.574775
vt 0.905607 0.577915
vt 0.899232 0.594867
vt 0.000306 0.489187
vt 0.000000 0.489131
vt 0.969447 0.497706
vt 1.000000 0.489131
vt 0.990529 0.489187
vt 0.151708 0.732077
vt 0.175630 0.671574
vt 0.185910 0.627202
vt 0.413917 0.670237
vt 0.309561 0.600251
vt 0.906250 0.270317
vt 0.875000 0.276589
vt 0.937500 0.285248
vt 0.978755 0.437500
vt 1.000000 0.466520
vt 0.281250 0.326441
vt 0.502810 0.437500
vt 0.527422 0.479857
vt 0.502339 0.474715
vt 0.502250 0.437500
vt 0.502026 0.435566
vt 0.694987 0.437500
s 0
f 44/1/1 6/2/1 41/3/1
f 63/4/2 62/5/2 61/6/2 58/7/2 57/8/2 59/9/2 60/10/2 64/11/2
f 57/8/3 58/7/3 1/12/3
f 77/13/4 78/14/4 66/15/4 69/16/4 65/17/4 67/18/4 68/19/4
f 23/20/5 8/21/5 22/22/5
f 71/23/6 76/24/6 75/25/6 72/26/6 73/27/6 78/14/6 77/13/6 74/28/6 70/29/6
f 73/27/7 72/26/7 2/30/7 9/31/7
f 9/31/8 2/30/8 3/32/8 10/33/8
f 10/33/9 3/32/9 4/34/9 11/35/9
f 54/36/10 56/37/10 55/38/10 51/39/10 49/40/10 53/41/10 52/42/10 50/43/10
f 39/44/11 5/45/11 45/46/11
f 19/47/12 17/48/12 18/49/12 20/50/12
f 7/51/13 14/52/13 13/53/13
f 42/54/14 12/55/14 46/56/14
f 41/3/15 6/2/15 7/51/15 13/53/15 12/55/15 42/54/15
f 32/57/16 33/58/16 16/59/16
f 74/28/17 26/60/17 15/61/17 70/29/17
f 33/58/18 34/62/18 15/63/18 26/64/18 25/65/18 19/47/18 20/50/18 16/59/18
f 22/22/19 8/21/19 24/66/19 27/67/19
f 36/68/20 17/48/20 19/47/20 25/65/20 24/66/20 8/21/20 23/20/20 38/69/20
f 3/32/21 30/70/21 31/71/21 4/34/21
f 72/26/22 75/25/22 29/72/22 2/30/22
f 2/30/23 29/72/23 30/70/23 3/32/23
f 76/24/24 71/23/24 28/73/24
f 70/74/25 15/63/25 34/62/25 28/73/25 71/23/25
f 58/7/26 61/6/26 21/75/26 1/12/26
f 43/76/27 47/77/27 37/78/27 35/79/27
f 48/80/28 43/76/28 35/79/28
f 62/5/29 63/4/29 48/80/29 35/79/29 37/78/29 36/68/29 38/69/29
f 36/68/30 37/78/30 47/77/30 46/56/30 12/55/30 13/53/30 14/52/30 18/49/30 17/48/30
f 56/37/31 54/36/31 40/81/31
f 50/43/32 5/45/32 39/44/32 40/81/32 54/36/32
f 18/49/33 14/52/33 7/51/33 6/2/33 44/1/33 45/46/33 5/45/33 50/43/33 52/42/33 32/57/33 16/59/33 20/50/33
f 11/35/34 4/34/34 49/40/34 51/39/34
f 4/34/35 31/71/35 53/41/35 49/40/35
f 43/76/36 48/80/36 63/4/36 64/11/36 55/38/36 56/37/36 40/81/36 39/44/36 45/46/36 44/1/36 41/3/36 42/54/36 46/56/36 47/77/36
f 21/75/37 61/6/37 62/5/37 38/69/37 23/20/37 22/22/37 27/67/37 68/19/37 67/18/37
f 60/10/38 59/9/38 69/16/38 66/15/38
f 78/14/39 73/27/39 9/31/39 10/33/39 11/35/39 51/39/39 55/38/39 64/11/39 60/10/39 66/15/39
f 57/8/40 1/12/40 65/17/40 69/16/40 59/9/40
f 1/12/41 21/75/41 67/18/41 65/17/41
f 32/57/42 52/42/42 53/41/42 31/71/42 30/70/42 29/72/42 75/25/42 76/24/42 28/73/42 34/62/42 33/58/42
f 24/66/43 25/65/43 26/60/43 74/28/43 77/13/43 68/19/43 27/67/43
