# Blender 4.2.0
# www.blender.org
mtllib type1_stone_1.mtl
o Cube
v -1.166198 2.178170 -0.247260
v -1.637510 0.304094 -2.178170
v -1.161289 2.178170 0.821514
v -1.377963 1.274828 2.178170
v 1.370390 2.178170 0.983441
v 1.367196 1.390558 2.178170
v 1.912793 -0.724171 -2.178170
v -1.893252 -0.813414 2.178170
v -1.882760 -0.689801 -2.178170
v 0.287619 -2.178170 -1.442068
v 0.977077 -1.541154 -2.178170
v -1.226126 -2.178170 -1.322168
v -1.585078 -1.351457 -2.178170
v 1.620857 -0.978409 2.178170
v 1.646998 -1.159221 2.085633
v 0.450769 -2.178170 1.550180
v -1.850659 -0.908084 2.178170
v -1.269442 -2.178170 1.532293
v 1.245494 2.178170 -0.149803
v 1.578549 0.176702 -2.178170
v 1.415141 2.178170 0.372622
v 1.881880 -0.435473 -2.178170
vn -0.0352 0.8344 0.5500
vn -0.0000 1.0000 -0.0000
vn 0.8604 0.4263 -0.2794
vn -0.9709 0.2396 0.0045
vn -0.0000 -0.0000 1.0000
vn -0.0093 -0.4566 0.8896
vn -0.0540 -0.7295 -0.6819
vn -0.9119 -0.4103 -0.0138
vn -0.0000 -1.0000 -0.0000
vn 0.6573 -0.7528 -0.0358
vn 0.9917 0.1062 0.0727
vn -0.0000 -0.0000 -1.0000
vn 0.0283 0.7138 -0.6997
vt 0.579801 0.610380
vt 0.671357 0.681437
vt 0.816644 0.672145
vt 0.573159 0.137766
vt 0.678524 0.616403
vt 0.816925 0.610810
vt 0.668788 0.646384
vt 0.625000 0.516436
vt 0.475009 0.482997
vt 0.510141 0.465589
vt 0.625000 0.252350
vt 0.517451 0.281027
vt 0.460414 0.266953
vt 0.453320 0.339705
vt 0.573159 0.954078
vt 0.443851 0.781983
vt 0.579801 0.796540
vt 0.453320 0.983649
vt 0.447887 0.981205
vt 0.291841 0.697989
vt 0.433475 0.774525
vt 0.427515 0.703062
vt 0.375000 0.853076
vt 0.375000 0.431734
vt 0.422443 0.284036
vt 0.411557 0.431072
vt 0.358582 0.450167
vt 0.447887 0.381929
vt 0.179636 0.549124
vt 0.266506 0.542243
vt 0.275869 0.713961
vt 0.177150 0.712935
vt 0.458442 0.484771
vt 0.416201 0.705710
s 0
usemtl Material
f 6/1/1 5/2/1 3/3/1 4/4/1
f 19/5/2 1/6/2 3/3/2 5/2/2 21/7/2
f 19/8/3 21/7/3 22/9/3 20/10/3
f 1/11/4 2/12/4 9/13/4 8/14/4 4/15/4 3/3/4
f 14/16/5 6/17/5 4/15/5 8/18/5 17/19/5
f 16/20/6 15/21/6 14/22/6 17/19/6 18/23/6
f 12/24/7 13/25/7 11/26/7 10/27/7
f 12/24/8 18/23/8 17/28/8 8/14/8 9/13/8 13/25/8
f 12/29/9 10/30/9 16/31/9 18/32/9
f 7/33/10 15/21/10 16/20/10 10/27/10 11/26/10
f 6/1/11 14/22/11 15/34/11 7/33/11 22/9/11 21/7/11 5/2/11
f 13/25/12 9/13/12 2/12/12 20/10/12 22/9/12 7/33/12 11/26/12
f 2/12/13 1/11/13 19/8/13 20/10/13
