# Blender 4.2.0
# www.blender.org
mtllib rock4.mtl
o rock_3
v -0.318933 1.121897 0.429025
v -0.229822 1.314397 -0.279883
v 0.761297 0.375564 0.340042
v 0.666180 0.141744 0.326814
v -0.398953 0.744426 0.404063
v 0.293386 0.091092 0.340042
v 0.761297 0.918432 -1.037112
v 0.761297 0.573684 -1.109635
v 0.521789 0.141744 -1.120980
v 0.353927 0.091092 -1.091481
v -0.229822 1.082822 -0.662484
v -0.252926 0.761826 -0.728426
v 0.761297 0.922676 -1.030100
v 0.087686 1.333847 -0.280755
v 0.038458 1.149734 0.399585
v 0.761297 0.453620 0.340042
vn -0.0561 0.9650 0.2560
vn 0.6841 0.6901 0.2363
vn 0.1838 -0.9830 -0.0054
vn -0.7224 -0.6886 -0.0629
vn -0.9828 0.1546 -0.1007
vn -0.3061 0.2099 -0.9286
vn 0.8921 -0.4456 -0.0749
vn 0.0469 -0.0498 0.9977
vn -0.0537 0.8543 -0.5171
vn 1.0000 -0.0000 -0.0000
vt 0.557994 0.248135
vt 0.589664 0.285076
vt 0.586788 0.112514
vt 0.553691 0.000000
vt 0.517977 0.532540
vt 0.437331 0.750000
vt 0.254978 0.522798
vt 0.271295 0.520215
vt 0.313837 0.750000
vt 0.237141 0.750000
vt 0.375000 0.427918
vt 0.375000 0.887859
vt 0.500865 0.000000
vt 0.516648 0.179126
vt 0.546973 0.173237
vt 0.517247 0.531427
vt 0.457973 0.519916
vt 0.375000 0.426402
vt 0.375000 0.811163
vt 0.423910 0.750000
vt 0.557994 0.917288
vt 0.553691 1.000000
vt 0.500865 1.000000
s 0
usemtl Material.001
f 15/1/1 14/2/1 2/3/1 1/4/1
f 13/5/2 14/2/2 15/1/2 16/6/2
f 10/7/3 9/8/3 4/9/3 6/10/3
f 10/11/4 6/12/4 5/13/4 12/14/4
f 5/13/5 1/4/5 2/3/5 11/15/5 12/14/5
f 12/14/6 11/15/6 7/16/6 8/17/6 9/18/6 10/7/6
f 4/19/7 9/18/7 8/17/7 3/20/7
f 3/20/8 16/6/8 15/21/8 1/22/8 5/23/8 6/12/8 4/19/8
f 11/15/9 2/3/9 14/2/9 13/5/9 7/16/9
f 8/17/10 7/16/10 13/5/10 16/6/10 3/20/10
