# Blender 4.2.0
# www.blender.org
mtllib rock1.mtl
o Rock_4.001
v -10.177264 1.001548 -0.655189
v -10.920854 1.404586 -0.208598
v -11.526971 1.086232 -0.302719
v -10.177264 0.683504 -0.880442
v -10.864213 0.274647 -1.021145
v -10.932388 1.387732 0.100383
v -11.526971 1.072680 0.087428
v -11.526971 0.708476 -0.570263
v -10.920021 0.274647 -1.009052
v -11.526971 0.669197 0.384119
v -10.177264 0.447929 0.367109
v -10.438348 0.274647 0.408378
v -10.177264 0.908570 0.560300
v -10.315581 0.982892 0.651835
v -11.148052 0.371664 0.758795
v -11.012218 0.274647 0.658826
vn 0.5287 -0.8341 -0.1575
vn -1.0000 -0.0000 -0.0000
vn -0.4685 0.8829 0.0307
vn -0.3146 0.5623 0.7647
vn -0.1741 0.5691 -0.8036
vn -0.5969 -0.8017 -0.0330
vn 0.5057 0.8602 0.0658
vn -0.0000 -1.0000 -0.0000
vn 0.3734 -0.3588 0.8555
vn 1.0000 -0.0000 -0.0000
vt 0.375000 0.645691
vt 0.375000 0.374100
vt 0.464595 0.518263
vt 0.412972 0.669505
vt 0.461460 0.078433
vt 0.549877 0.114401
vt 0.552847 0.161699
vt 0.470067 0.194133
vt 0.667068 0.547087
vt 0.652294 0.634126
vt 0.536315 0.703465
vt 0.335061 0.413885
vt 0.285867 0.692656
vt 0.353949 0.386269
vt 0.353703 0.327828
vt 0.534290 0.545571
vt 0.237423 0.502672
vt 0.266017 0.750542
vt 0.687392 0.526763
vt 0.704018 0.582403
vt 0.545790 0.693991
vt 0.513915 0.692926
vt 0.247760 0.501206
vt 0.326641 0.674508
vt 0.220345 0.704870
s 0
f 12/1/1 5/2/1 4/3/1 11/4/1
f 10/5/2 7/6/2 3/7/2 8/8/2
f 2/9/3 3/7/3 7/6/3 6/10/3
f 14/11/4 6/10/4 7/6/4 10/12/4 15/13/4
f 4/3/5 5/2/5 9/14/5 8/15/5 3/7/5 2/9/5 1/16/5
f 10/12/6 8/15/6 9/17/6 16/18/6 15/13/6
f 1/16/7 2/19/7 6/20/7 14/21/7 13/22/7
f 9/17/8 5/23/8 12/24/8 16/25/8
f 16/18/9 12/1/9 11/4/9 13/22/9 14/11/9 15/13/9
f 4/3/10 1/16/10 13/22/10 11/4/10
