# Blender 4.2.0
# www.blender.org
mtllib untitled.mtl
o Rock_1
v 1.276826 0.783707 -0.790368
v -0.320911 1.148308 0.807368
v 1.276826 1.231418 0.807368
v -0.320911 1.359830 0.088300
v 1.276826 1.417201 0.175799
v 0.590135 0.006303 -0.790368
v 1.276826 0.555426 -0.790368
v 1.276826 0.318885 0.807368
v 0.885935 0.006303 0.807368
v 0.521208 0.006303 -0.790368
v -0.320911 0.931606 -0.564801
v -0.171429 0.783707 -0.790368
v -0.320911 0.810697 0.807368
v 0.395775 0.006303 0.807368
vn -0.0498 0.9582 0.2819
vn -0.0000 0.8363 -0.5483
vn 1.0000 -0.0000 -0.0000
vn -0.7454 -0.6641 -0.0585
vn -1.0000 -0.0000 -0.0000
vn 0.6204 -0.7758 -0.1149
vn -0.0000 -1.0000 -0.0000
vn -0.0000 -0.0000 -1.0000
vn -0.0000 -0.0000 1.0000
vt 0.566695 0.750000
vt 0.595765 0.651178
vt 0.586788 0.112514
vt 0.553691 0.000000
vt 0.519783 0.214705
vt 0.496641 0.500000
vt 0.496641 0.273390
vt 0.460922 0.500000
vt 0.423910 0.750000
vt 0.375000 0.381768
vt 0.375000 0.887859
vt 0.500865 0.000000
vt 0.375000 0.811163
vt 0.375000 0.392553
vt 0.256768 0.500000
vt 0.267553 0.500000
vt 0.313837 0.750000
vt 0.237141 0.750000
vt 0.553691 1.000000
vt 0.500865 1.000000
s 0
usemtl Material.001
f 3/1/1 5/2/1 4/3/1 2/4/1
f 11/5/2 4/3/2 5/2/2 1/6/2 12/7/2
f 7/8/3 1/6/3 5/2/3 3/1/3 8/9/3
f 10/10/4 14/11/4 13/12/4 11/5/4 12/7/4
f 13/12/5 2/4/5 4/3/5 11/5/5
f 9/13/6 6/14/6 7/8/6 8/9/6
f 10/15/7 6/16/7 9/17/7 14/18/7
f 10/10/8 12/7/8 1/6/8 7/8/8 6/14/8
f 8/9/9 3/1/9 2/19/9 13/20/9 14/11/9 9/13/9
